<?xml version="1.0" encoding="iso-8859-1"?>
<!-- Generator: Adobe Illustrator 19.0.0, SVG Export Plug-In . SVG Version: 6.00 Build 0)  -->
<svg version="1.1" id="Layer_1" xmlns="http://www.w3.org/2000/svg" xmlns:xlink="http://www.w3.org/1999/xlink" x="0px" y="0px"
	 viewBox="0 0 511.996 511.996" style="enable-background:new 0 0 511.996 511.996;" xml:space="preserve">
<g>
	<g>
		<path d="M491.875,156.358c-12.893-30.485-31.344-57.858-54.863-81.373c-23.5-23.5-50.893-41.956-81.354-54.862
			C324.09,6.779,290.56,0,256,0c-34.554,0-68.079,6.779-99.647,20.123c-30.485,12.906-57.868,31.362-81.368,54.862
			C51.48,98.5,33.019,125.873,20.127,156.358C6.774,187.917,0.004,221.451,0.004,255.996c0,34.559,6.77,68.088,20.123,99.656
			c12.892,30.48,31.353,57.854,54.858,81.373c23.5,23.5,50.882,41.951,81.368,54.854c31.569,13.342,65.094,20.117,99.647,20.117
			c34.56,0,68.089-6.775,99.658-20.117c30.461-12.902,57.854-31.354,81.354-54.854c23.52-23.52,41.971-50.893,54.863-81.373
			c13.342-31.568,20.117-65.098,20.117-99.656C511.992,221.451,505.217,187.917,491.875,156.358z M421.934,421.928
			c-44.324,44.334-103.246,68.734-165.933,68.734c-62.682,0-121.608-24.4-165.937-68.734
			c-44.319-44.305-68.726-103.246-68.726-165.932c0-62.672,24.407-121.608,68.726-165.917
			c44.328-44.329,103.255-68.736,165.937-68.736c62.687,0,121.609,24.407,165.933,68.736
			c44.312,44.309,68.715,103.245,68.715,165.917C490.648,318.682,466.246,377.623,421.934,421.928z"/>
	</g>
</g>
<g>
	<g>
		<path d="M406.843,105.152C366.56,64.858,312.98,42.672,256,42.672c-56.985,0-110.554,22.187-150.849,62.48
			c-40.289,40.299-62.485,93.878-62.485,150.844c0,56.98,22.196,110.559,62.485,150.854c40.294,40.303,93.863,62.49,150.849,62.49
			c56.98,0,110.56-22.188,150.843-62.49c40.295-40.295,62.5-93.873,62.5-150.854C469.343,199.03,447.138,145.451,406.843,105.152z
			 M447.697,245.338H361.06v0.001c-0.668-6.779-2-13.357-3.902-19.687l80.117-33.187
			C443.168,209.338,446.716,227.103,447.697,245.338z M429.11,172.745l-80.149,33.206c-3.186-5.921-6.93-11.485-11.146-16.656
			l61.275-61.3C411.276,141.594,421.344,156.652,429.11,172.745z M384.003,112.902l-61.286,61.299
			c-5.166-4.221-10.746-7.971-16.656-11.171l33.186-80.143C355.354,90.652,370.403,100.715,384.003,112.902z M266.668,64.309
			c18.234,0.985,35.99,4.521,52.863,10.422l-33.187,80.127c-6.334-1.907-12.912-3.235-19.676-3.922V64.309z M245.334,64.308v86.628
			c-6.77,0.687-13.348,2.015-19.687,3.922L192.461,74.73C209.333,68.829,227.093,65.293,245.334,64.308z M172.751,82.887
			l33.196,80.143c-5.917,3.2-11.495,6.95-16.667,11.171l-61.284-61.299C141.589,100.715,156.643,90.652,172.751,82.887z
			 M112.907,127.995l61.29,61.3c-4.221,5.156-7.971,10.735-11.167,16.656l-80.138-33.206
			C90.652,156.652,100.711,141.594,112.907,127.995z M74.73,192.466l80.113,33.187c-1.907,6.328-3.235,12.907-3.911,19.686H64.299
			C65.294,227.104,68.828,209.339,74.73,192.466z M64.3,266.662h86.632c0.676,6.775,2.005,13.363,3.912,19.697l-80.113,33.186
			C68.829,302.662,65.295,284.899,64.3,266.662z M82.892,339.26l80.138-33.205c3.196,5.922,6.941,11.49,11.167,16.656l-61.29,61.295
			C100.711,370.418,90.652,355.35,82.892,339.26z M127.996,399.104l61.284-61.295c5.172,4.217,10.75,7.971,16.667,11.168
			l-33.196,80.137C156.643,421.35,141.589,411.29,127.996,399.104z M245.334,447.691c-18.24-0.98-36-4.51-52.873-10.422
			l33.186-80.107c6.338,1.893,12.917,3.236,19.687,3.912V447.691z M171.726,256.011c0-46.485,37.804-84.28,84.274-84.28
			s84.275,37.795,84.275,84.28c0,46.466-37.805,84.259-84.275,84.259C209.53,340.269,171.726,302.477,171.726,256.011z
			 M266.669,447.691v-86.617h-0.001c6.764-0.676,13.342-2.02,19.686-3.912l33.178,80.107
			C302.659,443.181,284.903,446.71,266.669,447.691z M339.245,429.114l-33.185-80.137c5.91-3.197,11.49-6.951,16.656-11.168
			l61.285,61.295C370.401,411.29,355.353,421.35,339.245,429.114z M399.088,384.007l-61.274-61.296
			c4.217-5.166,7.961-10.734,11.146-16.656l80.148,33.186C421.342,355.35,411.274,370.419,399.088,384.007z M437.275,319.545
			l-80.117-33.186c1.902-6.334,3.234-12.922,3.902-19.697h86.637C446.717,284.898,443.168,302.662,437.275,319.545z"/>
	</g>
</g>
<g>
	<g>
		<path d="M348.873,120.466c-4.156-4.171-10.922-4.171-15.098,0c-4.146,4.157-4.146,10.922,0,15.079
			c4.176,4.171,10.941,4.171,15.098,0C353.031,131.388,353.031,124.623,348.873,120.466z"/>
	</g>
</g>
<g>
	<g>
		<path d="M309.343,245.339h-23.185c-3.227-9.078-10.412-16.279-19.49-19.5v-23.172c0-5.887-4.779-10.671-10.667-10.671
			c-5.892,0-10.667,4.784-10.667,10.671v23.172c-9.079,3.221-16.28,10.422-19.5,19.5h-23.171c-5.887,0-10.662,4.765-10.662,10.657
			c0,5.892,4.774,10.666,10.662,10.666h23.17c3.221,9.078,10.422,16.285,19.5,19.51v23.168c0,5.891,4.774,10.656,10.667,10.656
			c5.888,0,10.667-4.766,10.667-10.656v-23.168c9.078-3.225,16.264-10.432,19.49-19.51h23.186c5.873,0,10.656-4.773,10.656-10.666
			C319.999,250.103,315.216,245.339,309.343,245.339z M256,266.662c-5.882,0-10.667-4.773-10.667-10.666
			c0.001-5.873,4.785-10.657,10.667-10.657c5.882,0,10.667,4.784,10.667,10.657C266.667,261.889,261.882,266.662,256,266.662z"/>
	</g>
</g>
<g>
</g>
<g>
</g>
<g>
</g>
<g>
</g>
<g>
</g>
<g>
</g>
<g>
</g>
<g>
</g>
<g>
</g>
<g>
</g>
<g>
</g>
<g>
</g>
<g>
</g>
<g>
</g>
<g>
</g>
</svg>
